<?xml version="1.0" encoding="utf-8"?>
<!-- Generator: Adobe Illustrator 16.0.0, SVG Export Plug-In . SVG Version: 6.00 Build 0)  -->
<!DOCTYPE svg PUBLIC "-//W3C//DTD SVG 1.1//EN" "http://www.w3.org/Graphics/SVG/1.1/DTD/svg11.dtd">
<svg version="1.1" id="Layer_1" xmlns="http://www.w3.org/2000/svg" xmlns:xlink="http://www.w3.org/1999/xlink" x="0px" y="0px"
	  viewBox="0 0 3000 3000" enable-background="new 0 0 3000 3000" xml:space="preserve">
<g id="Layer_x0020_1">
	<path fill="#1977F3" d="M2777.789,1500c0-705.651-572.139-1277.789-1277.789-1277.789S222.211,794.35,222.211,1500
		c0,637.724,467.199,1166.378,1078.151,1262.337v-892.893H975.84V1500h324.522v-281.577c0-320.211,190.833-497.208,482.651-497.208
		c139.803,0,286.07,24.977,286.07,24.977v314.46H1907.9c-158.668,0-208.264,98.472-208.264,199.638V1500h354.354l-56.604,369.445
		h-297.75v892.893C2310.59,2666.561,2777.789,2137.906,2777.789,1500z"/>
	<path fill="#FEFEFE" d="M1997.387,1869.445L2053.99,1500h-354.354v-239.709c0-100.986,49.418-199.638,208.264-199.638h161.184
		v-314.46c0,0-146.268-24.977-286.07-24.977c-291.819,0-482.651,176.817-482.651,497.208V1500H975.84v369.445h324.522v892.893
		c65.049,10.24,131.715,15.451,199.638,15.451c67.923,0,134.587-5.391,199.636-15.451v-892.893H1997.387z"/>
</g>
</svg>
